<?xml version="1.0" encoding="utf-8"?><!-- Uploaded to: SVG Repo, www.svgrepo.com, Generator: SVG Repo Mixer Tools -->
<svg fill="#000000" width="800px" height="800px" viewBox="0 0 24 24" id="add-file-11" data-name="Flat Color" xmlns="http://www.w3.org/2000/svg" class="icon flat-color"><path id="primary" d="M10,19a5,5,0,0,0-4-4.9V5a1,1,0,0,1,.29-.71l2-2A1,1,0,0,1,9,2H20a2,2,0,0,1,2,2V20a2,2,0,0,1-2,2H9A5,5,0,0,0,10,19Z" style="fill: rgb(0, 0, 0);"></path><path id="secondary" d="M4,21V20H3a1,1,0,0,1,0-2H4V17a1,1,0,0,1,2,0v1H7a1,1,0,0,1,0,2H6v1a1,1,0,0,1-2,0ZM9,2a1,1,0,0,0-.71.29l-2,2A1,1,0,0,0,6,5H8A1,1,0,0,0,9,4Zm3,12h6a1,1,0,0,0,0-2H12a1,1,0,0,0,0,2Zm-2-4h8a1,1,0,0,0,0-2H10a1,1,0,0,0,0,2Z" style="fill: rgb(44, 169, 188);"></path></svg>