<?xml version="1.0" encoding="utf-8"?><!-- Uploaded to: SVG Repo, www.svgrepo.com, Generator: SVG Repo Mixer Tools -->
<svg fill="#000000" width="800px" height="800px" viewBox="0 0 24 24" id="research-presentation-left" data-name="Flat Color" xmlns="http://www.w3.org/2000/svg" class="icon flat-color"><path id="primary" d="M4,2H20a1,1,0,0,1,1,1V15a2,2,0,0,1-2,2H5a2,2,0,0,1-2-2V3A1,1,0,0,1,4,2Z" style="fill: rgb(0, 0, 0);"></path><path id="secondary" d="M7,7H17a1,1,0,0,1,0,2H7A1,1,0,0,1,7,7Zm2,9a4,4,0,0,0,6.06,3.43l2.23,2.23a1,1,0,0,0,1.42,0,1,1,0,0,0,0-1.42L16.46,18A4,4,0,1,0,9,16ZM3,4H21a1,1,0,0,0,0-2H3A1,1,0,0,0,3,4Z" style="fill: rgb(44, 169, 188);"></path></svg>